<?xml version="1.0" standalone="no"?>
<!DOCTYPE svg PUBLIC "-//W3C//DTD SVG 20010904//EN"
 "http://www.w3.org/TR/2001/REC-SVG-20010904/DTD/svg10.dtd">
<svg version="1.0" xmlns="http://www.w3.org/2000/svg"
 width="500.000000pt" height="500.000000pt" viewBox="0 0 500.000000 500.000000"
 preserveAspectRatio="xMidYMid meet">

<g transform="translate(0.000000,500.000000) scale(0.100000,-0.100000)"
fill="#000000" stroke="none">
<path d="M1423 3270 c-47 -11 -79 -35 -111 -82 -27 -41 -27 -43 -32 -252 -3
-143 -9 -218 -18 -233 -18 -31 -52 -53 -84 -53 -28 0 -28 0 -28 -70 0 -57 3
-70 15 -70 29 0 76 -31 95 -63 18 -29 20 -51 20 -220 0 -165 2 -192 19 -225
38 -73 104 -112 191 -112 l50 0 0 70 0 70 -29 0 c-41 0 -77 15 -85 35 -3 10
-9 96 -11 194 -7 218 -9 229 -45 280 l-30 41 21 23 c44 45 49 75 49 282 l0
197 29 29 c22 21 39 29 65 29 l36 0 0 70 0 70 -42 -1 c-24 -1 -58 -4 -75 -9z"/>
<path d="M1640 3115 l0 -135 287 0 c270 0 289 -1 330 -21 104 -50 132 -190 56
-280 -44 -52 -74 -59 -253 -59 l-160 0 0 140 0 140 -130 0 -130 0 0 -485 0
-485 40 0 40 0 0 414 c0 359 -2 415 -15 420 -19 7 -20 60 0 76 23 19 64 4 71
-27 5 -20 2 -31 -14 -44 -22 -17 -22 -20 -22 -428 l0 -411 30 0 30 0 0 339 c0
216 -4 342 -10 346 -15 9 -12 41 4 54 11 9 20 10 35 1 24 -12 28 -48 6 -56
-13 -5 -15 -53 -15 -345 l0 -339 40 0 40 0 0 210 0 210 153 0 c241 0 331 26
431 125 180 179 180 463 1 640 -70 70 -143 108 -236 124 -37 6 -182 11 -337
11 l-272 0 0 -135z m359 63 c19 -19 27 -20 100 -15 150 12 246 -19 336 -109
52 -51 87 -121 100 -196 3 -20 12 -39 20 -42 26 -9 16 -76 -11 -76 -8 0 -14
-10 -14 -22 0 -33 -42 -119 -78 -160 -63 -70 -178 -128 -258 -128 -58 0 -46
17 16 23 74 6 154 43 203 92 70 70 120 182 91 206 -19 15 -18 38 2 60 14 16
15 25 5 65 -34 134 -123 225 -253 260 -29 7 -96 14 -148 14 -83 0 -98 -3 -113
-20 -20 -24 -50 -26 -71 -5 -10 11 -36 15 -88 15 -61 0 -76 -3 -91 -20 -38
-45 -97 -8 -76 48 10 26 66 32 75 7 9 -21 174 -22 174 -1 0 31 52 34 79 4z
m44 -98 c100 0 187 -5 211 -12 76 -22 148 -88 182 -167 19 -45 18 -169 -1
-215 -32 -77 -114 -144 -195 -161 -19 -4 -45 -13 -57 -21 -12 -8 -40 -14 -62
-14 -23 0 -41 -5 -44 -14 -17 -44 -95 -8 -81 37 13 41 55 50 76 17 9 -14 24
-20 50 -20 20 0 39 4 42 9 3 5 23 12 43 16 141 26 225 123 225 260 0 117 -59
207 -159 245 -46 17 -78 20 -223 20 -102 0 -171 -4 -175 -10 -9 -15 -42 -12
-49 5 -7 20 23 50 37 36 7 -7 74 -11 180 -11z"/>
<path d="M1944 3166 c-7 -19 3 -36 22 -36 10 0 14 8 12 22 -4 26 -26 36 -34
14z"/>
<path d="M1688 3158 c-8 -21 2 -38 22 -38 19 0 34 25 24 41 -8 13 -41 11 -46
-3z"/>
<path d="M2512 2783 c5 -26 38 -29 38 -4 0 15 -6 21 -21 21 -14 0 -19 -5 -17
-17z"/>
<path d="M1845 3070 c-3 -5 -1 -10 4 -10 6 0 11 5 11 10 0 6 -2 10 -4 10 -3 0
-8 -4 -11 -10z"/>
<path d="M2016 2513 c-4 -9 0 -23 9 -32 15 -15 18 -14 30 3 11 14 12 23 4 33
-16 18 -36 16 -43 -4z"/>
<path d="M1717 2823 c-11 -10 -8 -41 4 -49 16 -9 43 21 36 40 -7 16 -28 21
-40 9z"/>
<path d="M1806 2653 c-11 -11 -6 -23 9 -23 8 0 15 4 15 9 0 13 -16 22 -24 14z"/>
<path d="M3030 2616 c14 -18 13 -19 -2 -13 -12 4 -15 2 -12 -8 5 -12 10 -12
30 2 13 8 24 20 24 27 0 6 -4 5 -9 -3 -8 -13 -12 -13 -28 0 -17 13 -17 13 -3
-5z"/>
<path d="M2654 2585 c-7 -19 -14 -37 -14 -40 0 -8 302 3 309 12 3 3 0 8 -7 10
-6 3 -9 9 -6 14 3 6 0 16 -6 24 -10 12 -40 15 -137 15 l-124 0 -15 -35z m261
15 c3 -5 2 -10 -4 -10 -5 0 -13 5 -16 10 -3 6 -2 10 4 10 5 0 13 -4 16 -10z"/>
<path d="M3071 2571 c-10 -6 -10 -10 -1 -16 13 -8 24 -1 19 14 -3 6 -10 7 -18
2z"/>
<path d="M3043 2547 c0 -8 6 -14 14 -14 9 0 10 4 2 14 -6 7 -12 13 -14 13 -1
0 -2 -6 -2 -13z"/>
<path d="M3103 2548 c-13 -6 -23 -15 -23 -20 0 -5 11 -1 25 8 37 24 35 30 -2
12z"/>
<path d="M2800 2522 l-175 -3 -23 -30 -24 -29 129 0 129 0 25 -42 c13 -23 34
-58 46 -77 12 -20 37 -62 55 -93 20 -35 40 -58 50 -58 25 0 41 -35 28 -60 -23
-44 -86 -12 -74 37 4 14 -18 58 -69 139 l-75 119 -132 3 c-169 3 -170 3 -170
-114 0 -46 5 -86 10 -89 15 -9 12 -42 -4 -48 -8 -3 -22 0 -32 8 -15 10 -16 16
-6 28 9 10 12 41 10 91 l-3 76 -22 -15 c-22 -15 -23 -22 -23 -154 0 -113 3
-141 16 -151 9 -8 14 -25 12 -44 -2 -26 -8 -32 -31 -34 -16 -2 -35 2 -43 9
-21 17 -17 56 7 72 19 14 20 23 17 141 -1 69 -6 126 -11 126 -4 0 -15 -4 -25
-9 -9 -5 -25 -12 -34 -15 -16 -5 -18 -23 -18 -191 l0 -185 130 0 130 0 0 215
0 215 90 0 c82 0 91 -2 104 -22 63 -104 223 -367 231 -383 10 -19 21 -20 163
-22 116 -1 149 1 142 10 -6 7 -29 41 -51 77 -23 36 -45 67 -50 68 -5 2 -7 7
-4 12 9 14 -74 132 -88 124 -9 -6 -9 -5 0 7 8 10 9 19 3 25 -5 5 -26 36 -45
68 -33 56 -34 60 -19 78 10 10 14 21 10 26 -7 7 -11 8 -37 11 -5 0 -8 5 -4 10
3 6 -8 6 -27 1 -18 -5 -43 -10 -56 -12 -22 -3 -22 -3 11 -55 19 -29 36 -51 38
-48 3 2 5 -4 6 -15 2 -22 47 -92 55 -85 2 3 5 -1 5 -8 0 -25 87 -157 104 -157
9 0 22 -7 29 -15 7 -8 15 -13 19 -10 4 2 5 -10 3 -26 -6 -39 -43 -65 -71 -49
-24 12 -38 57 -23 72 7 7 -5 35 -43 92 -71 109 -195 312 -195 320 0 3 12 6 28
6 15 1 41 7 57 16 21 10 23 13 8 10 -14 -2 -20 0 -17 9 5 13 35 15 44 4 3 -4
11 0 18 7 11 13 9 14 -14 10 -15 -3 -33 -2 -38 2 -6 4 -90 6 -186 4z m270
-102 c0 8 3 10 6 7 9 -8 -15 -37 -30 -36 -6 0 -6 3 2 6 10 4 10 8 0 21 -12 15
-11 16 5 3 13 -11 17 -11 17 -1z m50 -160 c8 -5 11 -10 5 -10 -5 0 -17 5 -25
10 -8 5 -10 10 -5 10 6 0 17 -5 25 -10z"/>
<path d="M3071 2467 c-8 -10 -7 -14 2 -14 8 0 14 6 14 14 0 7 -1 13 -2 13 -2
0 -8 -6 -14 -13z"/>
<path d="M3570 2165 c0 -78 -2 -88 -25 -110 -18 -18 -35 -25 -65 -25 l-40 0 0
-70 0 -70 48 1 c60 1 104 17 141 52 48 45 61 81 61 171 0 87 -12 123 -30 96
-9 -13 -12 -13 -21 3 -6 9 -14 15 -20 12 -5 -4 -12 1 -15 9 -3 9 -12 16 -20
16 -11 0 -14 -19 -14 -85z"/>
<path d="M2992 2149 c2 -6 8 -10 13 -10 5 0 11 4 13 10 2 6 -4 11 -13 11 -9 0
-15 -5 -13 -11z"/>
<path d="M2422 2037 c-15 -17 1 -42 23 -33 18 6 17 37 -1 43 -6 2 -16 -2 -22
-10z"/>
<path d="M3173 2033 c-17 -6 -16 -30 1 -36 21 -8 40 17 24 30 -7 6 -19 8 -25
6z"/>
</g>
</svg>
